<?xml version="1.0" encoding="utf-8"?><svg xmlns="http://www.w3.org/2000/svg" xmlns:xlink="http://www.w3.org/1999/xlink" width="1920" height="937" preserveAspectRatio="xMidYMid" viewBox="0 0 1920 937" style="z-index:1;margin-right:-2px;display:block;background-repeat-y:initial;background-repeat-x:initial;background-color:rgb(26, 32, 44);animation-play-state:paused" ><g transform="translate(960,468.5) scale(1,1) translate(-960,-468.5)" style="transform:matrix(1, 0, 0, 1, 0, 0);animation-play-state:paused" ><defs style="animation-play-state:paused" ><path id="path-f8l9vz7q3de-1" d="M-35 -35L35 -35L35 35L-35 35Z" fill="none" stroke="inherit" stroke-width="4.333333333333334" transform="scale(0.3)" style="transform:matrix(0.3, 0, 0, 0.3, 0, 0);animation-play-state:paused" ></path>

  
<path id="path-f8l9vz7q3de-2" d="M0 -37A37 37 0 0 1 0 37A37 37 0 0 1 0 -37" fill="none" stroke="inherit" stroke-width="4.333333333333334" transform="scale(0.3)" style="transform:matrix(0.3, 0, 0, 0.3, 0, 0);animation-play-state:paused" ></path>

  
<path id="path-f8l9vz7q3de-3" d="M0 -34.641L40 34.641L-40 34.641Z" fill="none" stroke="inherit" stroke-width="4.333333333333334" transform="scale(0.3)" style="transform:matrix(0.3, 0, 0, 0.3, 0, 0);animation-play-state:paused" ></path></defs>
<path id="path0" d="M 89.87615248311565 448.32184541587276
c 0 27.90297996652628 -6.827324885426643 8.01468573506606 -14.842010620492703 8.01468573506606
S 60.192131242130245 476.22482538239905 60.192131242130245 448.32184541587276
s 6.827324885426643 -8.01468573506606 14.842010620492703 -8.01468573506606
S 89.87615248311565 420.41886544934647 89.87615248311565 448.32184541587276
z" fill="none" stroke="none" style="animation-play-state:paused" ></path>


<use xlink:href="#path-f8l9vz7q3de-1" x="0" y="0" stroke="#e51700" transform="translate(89.61076354980469 456.1906433105469)" style="animation-play-state:paused" ></use>
<path id="path1" d="M 161.3333387650955 127.09004136608073
c 0 55.52557816735332 -13.586045721799216 15.948836282112124 -29.534882003911342 15.948836282112124
S 102.2635747572728 182.61561953343406 102.2635747572728 127.09004136608073
s 13.586045721799216 -15.948836282112124 29.534882003911342 -15.948836282112124
S 161.3333387650955 71.5644631987274 161.3333387650955 127.09004136608073
z" fill="none" stroke="none" style="animation-play-state:paused" ></path>


<use xlink:href="#path-f8l9vz7q3de-2" x="0" y="0" stroke="#f7f900" transform="translate(139.75106811523438 145.85948181152344)" style="animation-play-state:paused" ></use>
<path id="path2" d="M 288.47473797639066 525.0548732386294
c 0 63.32602305960463 -15.49466521671177 18.18938960222686 -33.684054818938634 18.18938960222686
S 221.10662833851336 588.380896298234 221.10662833851336 525.0548732386294
s 15.49466521671177 -18.18938960222686 33.684054818938634 -18.18938960222686
S 288.47473797639066 461.7288501790248 288.47473797639066 525.0548732386294
z" fill="none" stroke="none" style="animation-play-state:paused" ></path>


<use xlink:href="#path-f8l9vz7q3de-2" x="0" y="0" stroke="#e51700" transform="translate(249.57215881347656 544.3837890625)" style="animation-play-state:paused" ></use>
<path id="path3" d="M 452.86809436380884 478.2176453767485
c 0 22.477947263062834 -5.499923266494097 6.4564316606669845 -11.956354927161081 6.4564316606669845
S 428.95538450948663 500.69559263981137 428.95538450948663 478.2176453767485
s 5.499923266494097 -6.4564316606669845 11.956354927161081 -6.4564316606669845
S 452.86809436380884 455.7396981136857 452.86809436380884 478.2176453767485
z" fill="none" stroke="none" style="animation-play-state:paused" ></path>


<use xlink:href="#path-f8l9vz7q3de-1" x="0" y="0" stroke="#f7f900" transform="translate(452.8565368652344 479.91192626953125)" style="animation-play-state:paused" ></use>
<path id="path4" d="M 549.6201761713206 776.6013315599693
c 0 22.068082979238234 -5.399637324707227 6.338704685525876 -11.738342010233103 6.338704685525876
S 526.1434921508545 798.6694145392075 526.1434921508545 776.6013315599693
s 5.399637324707227 -6.338704685525876 11.738342010233103 -6.338704685525876
S 549.6201761713206 754.533248580731 549.6201761713206 776.6013315599693
z" fill="none" stroke="none" style="animation-play-state:paused" ></path>


<use xlink:href="#path-f8l9vz7q3de-1" x="0" y="0" stroke="#f7f900" transform="translate(549.5787963867188 779.6741333007812)" style="animation-play-state:paused" ></use>
<path id="path5" d="M 650.5033996358532 142.25635895037166
c 0 43.70903385303256 -10.694763602337753 12.554722489700842 -23.249486092038595 12.554722489700842
S 604.0044274517759 185.96539280340423 604.0044274517759 142.25635895037166
s 10.694763602337753 -12.554722489700842 23.249486092038595 -12.554722489700842
S 650.5033996358532 98.5473250973391 650.5033996358532 142.25635895037166
z" fill="none" stroke="none" style="animation-play-state:paused" ></path>


<use xlink:href="#path-f8l9vz7q3de-1" x="0" y="0" stroke="#e51700" transform="translate(648.2233276367188 163.6112823486328)" style="animation-play-state:paused" ></use>
<path id="path6" d="M 683.4504410432124 293.8284017905709
c 0 37.913476754619126 -9.276701759108933 10.890041195475707 -20.16674295458464 10.890041195475707
S 643.1169551340432 331.74187854519005 643.1169551340432 293.8284017905709
s 9.276701759108933 -10.890041195475707 20.16674295458464 -10.890041195475707
S 683.4504410432124 255.9149250359518 683.4504410432124 293.8284017905709
z" fill="none" stroke="none" style="animation-play-state:paused" ></path>


<use xlink:href="#path-f8l9vz7q3de-2" x="0" y="0" stroke="#e51700" transform="translate(671.9353637695312 309.0993347167969)" style="animation-play-state:paused" ></use>
<path id="path7" d="M 819.1705531477455 125.51779138872507
c 0 49.973593361195874 -12.227581354335161 14.354117242045625 -26.581698596380786 14.354117242045625
S 766.007155954984 175.49138474992094 766.007155954984 125.51779138872507
s 12.227581354335161 -14.354117242045625 26.581698596380786 -14.354117242045625
S 819.1705531477455 75.5441980275292 819.1705531477455 125.51779138872507
z" fill="none" stroke="none" style="animation-play-state:paused" ></path>


<use xlink:href="#path-f8l9vz7q3de-1" x="0" y="0" stroke="#f7f900" transform="translate(797.3018188476562 141.034912109375)" style="animation-play-state:paused" ></use>
<path id="path8" d="M 920.6850230728678 249.06718516736788
c 0 26.08631064108835 -6.382820688776936 7.492876460738143 -13.875697149515078 7.492876460738143
S 892.9336287738377 275.1534958084562 892.9336287738377 249.06718516736788
s 6.382820688776936 -7.492876460738143 13.875697149515078 -7.492876460738143
S 920.6850230728678 222.98087452627954 920.6850230728678 249.06718516736788
z" fill="none" stroke="none" style="animation-play-state:paused" ></path>


<use xlink:href="#path-f8l9vz7q3de-2" x="0" y="0" stroke="#e51700" transform="translate(920.4723510742188 255.97756958007812)" style="animation-play-state:paused" ></use>
<path id="path9" d="M 1014.0844187985139 478.39747250795716
c 0 60.07985480318174 -14.700390005033828 17.25697957112667 -31.957369576160495 17.25697957112667
S 950.1696796461928 538.4773273111389 950.1696796461928 478.39747250795716
s 14.700390005033828 -17.25697957112667 31.957369576160495 -17.25697957112667
S 1014.0844187985139 418.31761770477544 1014.0844187985139 478.39747250795716
z" fill="none" stroke="none" style="animation-play-state:paused" ></path>


<use xlink:href="#path-f8l9vz7q3de-1" x="0" y="0" stroke="#e51700" transform="translate(1007.7920532226562 510.42779541015625)" style="animation-play-state:paused" ></use>
<path id="path10" d="M 1113.4205469117248 264.4876695008515
c 0 60.345130062798255 -14.765297781322976 17.33317565633567 -32.09847343765865 17.33317565633567
S 1049.2236000364076 324.83279956364976 1049.2236000364076 264.4876695008515
s 14.765297781322976 -17.33317565633567 32.09847343765865 -17.33317565633567
S 1113.4205469117248 204.14253943805323 1113.4205469117248 264.4876695008515
z" fill="none" stroke="none" style="animation-play-state:paused" ></path>


<use xlink:href="#path-f8l9vz7q3de-2" x="0" y="0" stroke="#1300f4" transform="translate(1112.648193359375 283.5890808105469)" style="animation-play-state:paused" ></use>
<path id="path11" d="M 1219.5138510271597 348.7784740782746
c 0 29.545828076587814 -7.229298359165102 8.486567639019905 -15.715865998185006 8.486567639019905
S 1188.0821190307895 378.32430215486244 1188.0821190307895 348.7784740782746
s 7.229298359165102 -8.486567639019905 15.715865998185006 -8.486567639019905
S 1219.5138510271597 319.23264600168676 1219.5138510271597 348.7784740782746
z" fill="none" stroke="none" style="animation-play-state:paused" ></path>


<use xlink:href="#path-f8l9vz7q3de-2" x="0" y="0" stroke="#f7f900" transform="translate(1211.241455078125 361.2806396484375)" style="animation-play-state:paused" ></use>
<path id="path12" d="M 1328.772085836016 165.32062594548805
c 0 30.04101637919034 -7.350461454482741 8.62880257700148 -15.979264031484222 8.62880257700148
S 1296.8135577730475 195.36164232467837 1296.8135577730475 165.32062594548805
s 7.350461454482741 -8.62880257700148 15.979264031484222 -8.62880257700148
S 1328.772085836016 135.27960956629772 1328.772085836016 165.32062594548805
z" fill="none" stroke="none" style="animation-play-state:paused" ></path>


<use xlink:href="#path-f8l9vz7q3de-1" x="0" y="0" stroke="#f7f900" transform="translate(1300.339599609375 181.3342742919922)" style="animation-play-state:paused" ></use>
<path id="path13" d="M 1454.0138268287485 792.5782449446906
c 0 46.38170905442167 -11.348716045230832 13.322405792227501 -24.671121837458333 13.322405792227501
S 1404.671583153832 838.9599539991123 1404.671583153832 792.5782449446906
s 11.348716045230832 -13.322405792227501 24.671121837458333 -13.322405792227501
S 1454.0138268287485 746.1965358902689 1454.0138268287485 792.5782449446906
z" fill="none" stroke="none" style="animation-play-state:paused" ></path>


<use xlink:href="#path-f8l9vz7q3de-2" x="0" y="0" stroke="#1300f4" transform="translate(1452.612060546875 812.276123046875)" style="animation-play-state:paused" ></use>
<path id="path14" d="M 1543.0567361912897 681.3060844764175
c 0 54.92405041228919 -13.438863398751609 15.776057033317107 -29.214920432068716 15.776057033317107
S 1484.6268953271522 736.2301348887066 1484.6268953271522 681.3060844764175
s 13.438863398751609 -15.776057033317107 29.214920432068716 -15.776057033317107
S 1543.0567361912897 626.3820340641283 1543.0567361912897 681.3060844764175
z" fill="none" stroke="none" style="animation-play-state:paused" ></path>


<use xlink:href="#path-f8l9vz7q3de-2" x="0" y="0" stroke="#1300f4" transform="translate(1542.779296875 693.2111206054688)" style="animation-play-state:paused" ></use>
<path id="path15" d="M 1649.5964398738479 452.2223427838769
c 0 37.62852669329624 -9.20697993559376 10.808193837436153 -20.015173773029915 10.808193837436153
S 1609.5660923277883 489.85086947717315 1609.5660923277883 452.2223427838769
s 9.20697993559376 -10.808193837436153 20.015173773029915 -10.808193837436153
S 1649.5964398738479 414.5938160905807 1649.5964398738479 452.2223427838769
z" fill="none" stroke="none" style="animation-play-state:paused" ></path>


<use xlink:href="#path-f8l9vz7q3de-1" x="0" y="0" stroke="#e51700" transform="translate(1626.37158203125 463.75384521484375)" style="animation-play-state:paused" ></use>
<path id="path16" d="M 1752.2880195566242 109.02217621840862
c 0 23.188450470917704 -5.673769796075608 6.66051236930615 -12.334282165381758 6.66051236930615
S 1727.6194552258605 132.21062668932632 1727.6194552258605 109.02217621840862
s 5.673769796075608 -6.66051236930615 12.334282165381758 -6.66051236930615
S 1752.2880195566242 85.83372574749092 1752.2880195566242 109.02217621840862
z" fill="none" stroke="none" style="animation-play-state:paused" ></path>


<use xlink:href="#path-f8l9vz7q3de-2" x="0" y="0" stroke="#1300f4" transform="translate(1747.1943359375 120.03382873535156)" style="animation-play-state:paused" ></use>
<path id="path17" d="M 1903.9343279528784 651.7983122157873
c 0 39.818587738788914 -9.742845936086649 11.437253924971284 -21.180099861057933 11.437253924971284
S 1861.5741282307627 691.6168999545762 1861.5741282307627 651.7983122157873
s 9.742845936086649 -11.437253924971284 21.180099861057933 -11.437253924971284
S 1903.9343279528784 611.9797244769984 1903.9343279528784 651.7983122157873
z" fill="none" stroke="none" style="animation-play-state:paused" ></path>


<use xlink:href="#path-f8l9vz7q3de-1" x="0" y="0" stroke="#1300f4" transform="translate(1903.03125 667.2505493164062)" style="animation-play-state:paused" ></use></g></svg>